<svg width="500" height="554" viewBox="0 0 500 554" fill="none" xmlns="http://www.w3.org/2000/svg">
<path d="M134.183 134.415C87.7214 153.729 49.3712 188.604 25.6658 233.101C1.96042 277.598 -5.63375 328.963 4.177 378.447C13.9877 427.93 40.5965 472.471 79.4705 504.481C118.344 536.492 167.079 553.992 217.371 554V423.099C194.481 422.836 172.617 413.529 156.522 397.197C140.428 380.865 131.402 358.826 131.402 335.861C131.402 312.896 140.428 290.857 156.522 274.525C172.617 258.194 194.481 248.887 217.371 248.623V117.769C188.821 117.783 160.554 123.439 134.183 134.415Z" fill="#1DA7B4"/>
<path d="M483.45 134.634C466.994 94.7821 439.129 60.72 403.376 36.7553C367.624 12.7906 325.59 -0.00029084 282.591 4.9599e-09V130.854C294.095 130.722 305.511 132.881 316.177 137.205C326.844 141.53 336.549 147.935 344.731 156.049C352.912 164.163 359.408 173.825 363.841 184.475C368.274 195.125 370.557 206.551 370.557 218.093C370.557 229.634 368.274 241.061 363.841 251.711C359.408 262.361 352.912 272.022 344.731 280.136C336.549 288.25 326.844 294.655 316.177 298.98C305.511 303.305 294.095 305.463 282.591 305.331V436.185C318.344 436.188 353.545 427.344 385.077 410.438C416.608 393.532 443.497 369.085 463.361 339.264C483.224 309.443 495.45 275.167 498.954 239.473C502.458 203.78 497.133 167.77 483.45 134.634Z" fill="#F8A90D"/>
</svg>
