<svg width="239" height="50" viewBox="0 0 239 50" fill="none" xmlns="http://www.w3.org/2000/svg">
<path fill-rule="evenodd" clip-rule="evenodd" d="M79.6541 5C79.3294 5 79.0859 5.24054 79.0859 5.51316V45.3952C79.0859 45.6838 79.3497 45.9083 79.6541 45.9083C79.9788 45.9083 80.2223 45.6678 80.2223 45.3952V5.52919C80.2223 5.24054 79.9788 5 79.6541 5Z" fill="#DDDDDD"/>
<path d="M15.9069 26.4551C16.4636 29.92 16.2978 30.6651 15.7529 32.0723C15.7174 32.1669 16.0964 32.4862 16.2386 32.1315C16.6768 30.9962 16.6768 30.9844 16.7479 29.991C16.819 28.7375 15.8832 26.3605 15.9069 26.4551ZM38.6722 25.2962C38.6958 25.1898 37.1087 28.5837 37.2034 29.9555C37.2863 31.0435 37.239 31.3746 37.772 32.6045C37.9378 32.9947 38.3997 32.64 38.3642 32.5335C37.618 30.1093 37.4995 29.9673 38.6722 25.2962ZM41.1714 25.6273C41.195 25.5209 40.0698 28.2644 40.1646 29.6362C40.2475 30.7242 40.2119 30.5586 40.745 31.7885C40.9108 32.1788 41.3964 31.8476 41.349 31.753C40.6976 30.2157 40.4962 29.4115 41.1714 25.6273ZM43.9548 26.1831C43.9667 26.1003 43.0073 28.1817 43.0902 29.2815C43.1612 30.1566 43.1612 30.1684 43.6113 31.1499C43.7535 31.4574 44.1443 31.1854 44.1088 31.1026C43.5521 29.8846 43.3744 29.2223 43.9548 26.1831ZM25.4773 24.1254C25.2997 23.8889 25.0154 23.6406 25.1575 23.9244C25.5247 24.7049 25.9629 25.0833 26.6262 25.2252C27.408 25.3908 28.0357 24.8941 28.4385 24.0308C28.5688 23.7352 27.7989 24.7404 26.8394 24.7167C26.2591 24.7049 25.8327 24.5867 25.4773 24.1254ZM25.5484 27.6613C25.3707 27.4248 25.0865 27.1765 25.2286 27.4603C25.5958 28.2408 26.034 28.6192 26.6973 28.7611C27.4791 28.9267 28.1068 28.43 28.5095 27.5667C28.6398 27.2711 27.8699 28.2763 26.9105 28.2526C26.3301 28.2408 25.9037 28.1344 25.5484 27.6613ZM25.6195 31.4692C25.4418 31.2327 25.1575 30.9844 25.2997 31.28C25.6668 32.0605 26.1051 32.4389 26.7684 32.5808C27.5501 32.7464 28.1779 32.2497 28.5806 31.3864C28.7109 31.0908 27.941 32.096 26.9816 32.0723C26.4012 32.0487 25.9629 31.9422 25.6195 31.4692ZM25.809 34.7331C25.6313 34.4966 25.347 34.2483 25.4892 34.5439C25.8563 35.3244 26.2946 35.7028 26.9579 35.8447C27.7396 36.0103 28.3674 35.5136 28.7701 34.6503C28.9004 34.3547 28.1305 35.3599 27.1711 35.3362C26.6026 35.3126 26.1643 35.2061 25.809 34.7331ZM28.8412 22.2806C28.6635 22.0441 28.3792 21.7958 28.5214 22.0796C28.8886 22.8601 29.3268 23.2385 29.9901 23.3804C30.7718 23.546 31.3996 23.0493 31.8023 22.186C31.9326 21.8904 31.1627 22.8956 30.2033 22.8719C29.6229 22.8483 29.1965 22.7418 28.8412 22.2806ZM28.9004 25.8165C28.7227 25.58 28.4385 25.3317 28.5806 25.6155C28.9478 26.396 29.386 26.7744 30.0493 26.9163C30.8311 27.0819 31.4588 26.5852 31.8615 25.7219C31.9918 25.4263 31.2219 26.4315 30.2625 26.4078C29.6821 26.396 29.2557 26.2777 28.9004 25.8165ZM28.9715 29.6244C28.7938 29.3879 28.5095 29.1395 28.6517 29.4234C29.0188 30.2039 29.4571 30.5823 30.1204 30.7242C30.9021 30.8898 31.5299 30.3931 31.9326 29.5298C32.0629 29.2342 31.293 30.2393 30.3336 30.2157C29.7532 30.2039 29.3268 30.0856 28.9715 29.6244ZM29.1728 32.8883C28.9952 32.6518 28.7109 32.4034 28.853 32.6991C29.2202 33.4796 29.6585 33.858 30.3217 33.9999C31.1035 34.1655 31.7312 33.6688 32.134 32.8055C32.2642 32.5099 31.4944 33.5151 30.5349 33.4914C29.9546 33.4678 29.5282 33.3613 29.1728 32.8883ZM31.9444 24.3028C31.7668 24.0663 31.4825 23.818 31.6246 24.1018C31.9918 24.8823 32.4301 25.2607 33.0934 25.4026C33.8751 25.5682 34.5029 25.0715 34.9056 24.2082C35.0359 23.9126 34.266 24.9178 33.3066 24.8941C32.7262 24.8705 32.2879 24.764 31.9444 24.3028ZM32.0037 27.8387C31.826 27.6022 31.5417 27.3539 31.6839 27.6377C32.0511 28.4182 32.4893 28.7966 33.1526 28.9385C33.9343 29.1041 34.5621 28.6074 34.9648 27.7441C35.0951 27.4485 34.3252 28.4537 33.3658 28.43C32.7854 28.4182 32.359 28.2999 32.0037 27.8387ZM32.0747 31.6466C31.8971 31.4101 31.6128 31.1617 31.7549 31.4574C32.1221 32.2379 32.5604 32.6163 33.2237 32.7582C34.0054 32.9238 34.6332 32.4271 35.0359 31.5638C35.1662 31.2682 34.3963 32.2734 33.4369 32.2497C32.8565 32.2261 32.4182 32.1196 32.0747 31.6466ZM32.2761 34.9105C32.0984 34.674 31.8142 34.4256 31.9563 34.7095C32.3235 35.49 32.7617 35.8684 33.425 36.0103C34.2068 36.1758 34.8345 35.6792 35.2372 34.8159C35.3675 34.5202 34.5976 35.5254 33.6382 35.5018C33.0578 35.49 32.6196 35.3835 32.2761 34.9105ZM21.0119 25.4499C22.149 30.7833 22.0306 30.9371 21.308 33.7161C21.2725 33.8344 21.7226 34.2364 21.8766 33.7989C22.3859 32.3916 22.3504 32.0014 22.4214 30.7715C22.5162 29.1987 20.9882 25.3317 21.0119 25.4499ZM18.6075 25.8284C19.2589 30.1447 19.0576 31.0671 18.4298 32.8173C18.3824 32.9356 18.8562 33.3022 19.022 32.8646C19.5314 31.4574 19.5077 31.6466 19.5787 30.4049C19.6735 28.8321 18.5838 25.6983 18.6075 25.8284ZM29.1491 12.146C28.8649 12.146 28.6398 12.3825 28.6398 12.6663C28.6398 12.8792 28.8886 13.1867 29.1136 13.1985C30.1441 13.2458 29.7887 12.6545 30.0256 12.6545C30.2033 12.6545 31.4114 12.6309 31.4114 13.1394C31.4114 13.3404 31.5417 13.3759 31.5417 13.163C31.5299 12.4653 29.6821 12.146 29.1491 12.146ZM40.3541 16.3441C43.9311 16.7226 47.52 23.3568 47.4845 28.2171C47.4845 28.9503 46.1342 27.7441 46.4422 28.4064C47.4253 30.4995 46.9397 32.8765 47.0344 34.1536C47.1055 34.9696 46.0632 35.1352 46.0632 35.1352C46.0632 37.6895 45.7552 39.5698 44.6892 41.9113C43.9193 43.626 42.4387 45.6009 41.9886 47.2802C40.9818 46.9964 40.129 45.5773 40.129 44.8796C40.129 43.7325 41.5978 40.9534 42.3677 38.9549C42.723 37.8906 42.8888 37.0509 43.4218 36.5661C42.4387 37.3466 42.2729 38.1862 41.7991 39.1796C41.1003 40.6814 39.9514 43.0111 39.6316 44.4775C38.8735 43.8389 38.1747 42.952 38.1747 42.1123C38.1747 41.6748 40.1764 36.8972 40.8042 35.8802C38.9446 37.2875 38.7195 39.6999 37.7838 41.7576C37.2034 41.2727 36.5994 40.2557 36.5994 39.5225C36.5994 38.8958 38.151 35.2534 38.53 34.8987C37.2153 35.5373 36.6112 37.8196 36.2203 39.1204C35.332 38.3045 35.2017 37.2047 35.1543 36.3177C34.8345 37.8078 33.5435 41.2727 33.5435 41.7931C33.5435 42.1951 34.5858 44.8914 34.9174 45.3171C35.1662 45.3408 35.6163 44.8914 36.4217 45.3408C36.8007 45.731 36.9665 45.4354 37.4048 46.3696C37.1561 46.3814 36.7652 46.0385 36.5994 45.9794C36.09 45.802 36.244 45.9912 35.8887 46.1686C35.4978 46.3578 35.0951 45.9675 35.0122 46.0266C35.9361 46.7717 36.4335 46.8308 36.0427 47.8715C35.9716 48.0725 35.711 48.6401 35.6281 48.7466C35.4741 48.5692 35.5333 47.7887 35.3794 47.3748C34.2541 47.363 34.9174 46.275 34.3015 46.204C34.0646 47.3511 32.9039 46.3341 32.6077 47.4694L32.2643 47.836C32.134 45.731 33.8159 45.7074 33.7922 45.6009C33.1526 42.7155 30.1915 40.2202 30.1915 40.2202C28.9952 41.7694 27.7515 42.3725 26.6618 45.6009C26.6262 45.7074 28.2963 45.9912 28.5214 48.108L28.3082 48.0252C28.2489 47.7296 27.9173 47.3393 27.5501 47.2684C26.9816 47.1501 26.3183 47.3393 26.4486 46.3341C26.2354 46.4879 26.2235 46.7125 25.9393 47.1501C25.7142 47.493 25.1338 47.9188 25.0628 48.3918C25.0154 48.6993 25.2523 49.0422 25.4181 49.3615C25.2997 49.2078 24.5298 48.5219 24.6245 48.3208C25.2167 47.02 24.0204 47.2329 25.4299 46.0266C25.3589 45.9557 24.9443 46.4997 24.5534 46.3105C24.0678 46.074 24.2218 46.6771 23.215 46.6534C23.8191 46.2632 23.9375 45.6128 24.4942 45.3762C24.7311 45.2816 25.4536 45.2935 25.7024 45.2698C26.034 44.8441 26.8868 42.1951 26.8868 41.7931C26.8868 41.2727 25.5958 37.8078 25.276 36.3177C25.2286 37.2047 25.1101 38.3045 24.21 39.1204C23.8191 37.8196 23.215 35.5373 21.9003 34.8987C22.2793 35.2534 23.8309 38.8958 23.8309 39.5225C23.8309 40.2557 23.2269 41.2727 22.6465 41.7576C21.7108 39.6999 21.4857 37.2756 19.6261 35.8802C20.2539 36.8972 22.2556 41.6748 22.2556 42.1123C22.2556 42.9401 21.5568 43.8271 20.7987 44.4775C20.4789 43.0229 19.33 40.6814 18.6312 39.1796C18.1574 38.1862 17.9916 37.3466 17.0085 36.5661C17.5415 37.0509 17.7073 37.8906 18.0626 38.9549C18.8325 40.9416 20.3013 43.7206 20.3013 44.8796C20.3013 45.5655 19.4366 46.9964 18.4417 47.2802C17.9797 45.6009 16.6176 43.5787 15.7411 41.9113C13.4551 37.5594 14.6277 36.6607 14.2605 34.3665C14.1421 33.6333 13.4551 34.4729 13.5262 33.1603C13.5262 33.1603 12.2943 28.631 14.45 25.5091C14.4856 25.0006 13.2064 26.1003 13.2656 25.6273C13.538 23.6642 16.0609 16.758 20.0881 16.3441C22.4807 16.0958 22.3622 19.2533 23.8665 20.3294C24.21 20.5777 24.6364 20.7196 25.1931 20.7196C26.2117 20.7196 26.8158 20.0574 27.1711 19.2296C27.6567 18.1416 27.6923 16.7817 27.6923 16.3796C27.6923 15.2916 27.7989 13.8489 25.7024 13.908C26.0696 13.6834 26.4723 13.6242 26.6855 13.6242C27.3014 13.6242 27.9291 13.908 28.5214 14.3219L28.6517 14.18C28.2371 13.4823 27.1474 13.2695 26.6381 13.2695C26.2828 13.2695 25.1457 13.5296 24.9443 13.9672C24.814 13.8726 24.7193 13.7898 24.7193 13.5769C24.7074 13.0802 24.8377 12.4417 25.122 12.2288C26.1051 11.5074 27.029 11.9805 27.5383 11.6375C28.4029 11.0462 28.7701 10.8215 29.5163 10.8215C29.7295 10.8215 31.5773 11.0817 32.6433 11.3537C32.738 11.4483 32.7499 11.3892 32.7499 11.6139C32.7499 11.8385 32.6551 11.9568 32.5722 12.0041C33.1763 12.2406 33.4487 13.8371 33.4487 14.3929V17.4439C33.4487 18.8512 33.9343 20.3649 35.7584 20.3885C38.8024 20.4358 37.6891 16.0721 40.3541 16.3441ZM25.5839 38.6474L26.5315 41.6748C26.0932 42.9283 26.0222 44.0872 25.5484 44.8796C25.3944 45.1279 24.3758 44.9742 24.1034 45.1516C23.7717 45.3762 23.3571 46.0858 22.9781 46.3459L25.5839 38.6474ZM26.1762 50.0001C25.9629 50.0001 23.9731 49.9764 23.748 49.9764C23.1203 49.9764 22.1608 49.7754 22.1608 48.7702C22.1608 48.5455 22.5162 47.564 22.9071 46.9254C23.0373 47.1264 23.0847 46.8899 23.2979 46.8899C23.5111 46.8899 23.7599 46.9254 23.9494 46.8308C23.9494 46.8308 24.3639 46.6652 24.4824 46.6416C24.3166 47.0555 24.5416 47.4812 24.4705 47.8005C24.3402 48.3445 24.281 48.5574 24.4113 48.7347C24.6127 49.0067 24.8733 49.5034 25.4773 49.5862C25.7616 49.598 25.3233 48.8766 25.3233 48.4864C25.3352 47.9779 25.9866 47.7296 26.2354 47.1264C26.3064 47.564 26.9816 47.4694 27.5146 47.6468C27.9173 47.836 27.7752 48.309 28.5214 48.5455C28.9004 48.6638 28.7938 47.9188 28.7938 47.8005C28.7938 47.0555 27.941 45.7901 27.1474 45.5418C27.5027 43.4959 30.227 40.8706 30.3099 40.776C31.1153 41.6393 32.9749 43.5669 33.2473 45.3762C32.9512 45.7074 32.2643 45.6719 31.9681 47.2092C31.9444 47.3275 31.8971 48.1671 32.2643 48.3327C32.5248 48.4509 32.9631 47.765 33.0341 47.3748C33.1289 46.8781 33.7804 47.6113 34.2423 46.8663C34.3963 47.0673 34.4792 47.2565 34.5739 47.5285C34.6569 47.765 35.1069 47.5758 35.178 47.8005C35.3438 48.3445 35.2135 49.1368 35.5452 49.125C35.9361 49.0422 36.4098 48.2381 36.4098 47.765C36.4098 47.5403 36.7533 46.8308 35.9479 46.4287C36.0427 46.3223 36.623 46.2868 36.623 46.2868C36.8126 46.3814 37.1324 46.7598 37.6891 46.9372C38.0799 47.5758 38.4353 48.5574 38.4353 48.782C38.4353 49.7754 37.618 49.9883 36.9784 49.9883C36.777 49.9764 28.1779 50.0001 26.1762 50.0001ZM34.953 38.3991L37.3929 45.731C37.0139 45.4708 36.6941 45.0924 36.3625 44.8796C36.09 44.7022 35.3675 45.0924 35.2135 44.8323C34.5621 43.7088 34.3015 43.0111 33.8633 41.7576L34.953 38.3991Z" fill="#3BA6B3"/>
<path fill-rule="evenodd" clip-rule="evenodd" d="M6.26568 48.8647L6.49073 48.7109L6.43151 48.6045C6.25384 48.3443 6.69209 48.0605 7.05927 47.8004L9.08469 46.3813C9.32158 46.2157 9.81905 45.8846 9.99672 46.1329L10.0678 46.2276L10.2928 46.0738L10.1744 45.9083C10.127 45.8373 10.0441 45.7782 9.97303 45.719C9.90196 45.6481 9.83089 45.5653 9.77167 45.4707C9.71245 45.3879 9.65322 45.2933 9.61769 45.1987C9.55847 45.1041 9.53478 45.0095 9.47556 44.9385L9.35711 44.773L9.13206 44.9267L9.20313 45.0213C9.3808 45.2697 8.89517 45.6244 8.65828 45.79L6.63286 47.2091C6.27753 47.4574 5.85112 47.7767 5.66161 47.5166L5.59054 47.4219L5.3655 47.5757L5.4721 47.7294C5.51948 47.8004 5.60239 47.8713 5.66161 47.9423C5.73268 48.0132 5.80374 48.096 5.86297 48.1788C5.92219 48.2616 5.96957 48.3562 6.01695 48.4508C6.05248 48.5336 6.09986 48.6282 6.14724 48.6991L6.26568 48.8647ZM5.15229 46.7952L5.08123 46.6888C5.03385 46.6178 5.06938 46.4995 5.19967 46.4404C5.49579 46.2985 5.88666 46.3695 6.18277 46.4049C6.53811 46.4404 6.91713 46.4404 7.47383 46.4641C7.72256 45.7782 8.05421 45.0805 8.1845 44.7966C8.51615 44.0989 8.69382 43.7323 8.42139 43.3539C8.2911 43.1765 8.23188 43.1647 7.98314 42.9873L7.7581 43.1529C7.95945 43.2475 8.00683 43.3184 8.03052 43.3539C8.12528 43.4958 7.94761 43.8033 7.82916 44.028C7.6515 44.3827 7.47383 44.7612 7.308 45.1159C7.15402 45.4471 6.97636 45.7663 7.07111 46.2394C6.95267 46.2275 6.89344 46.2157 6.78684 46.2039C6.50257 46.1802 6.75131 46.2157 6.02879 46.1211C4.71405 45.9556 4.61929 45.991 4.41793 45.719L4.37055 45.6481L4.14551 45.8018L4.21658 45.9083C4.25211 45.9556 4.29949 45.991 4.33502 46.0383C4.41793 46.1211 4.51269 46.2157 4.58376 46.3103C4.66667 46.4286 4.71405 46.5468 4.77327 46.6769C4.8088 46.7361 4.83249 46.7834 4.86803 46.8307L4.93909 46.9253L5.15229 46.7952Z" fill="#3BA6B3"/>
<path fill-rule="evenodd" clip-rule="evenodd" d="M3.03196 43.6947L3.28069 43.5883L3.23332 43.4818C3.11487 43.1625 3.75448 42.9615 4.14535 42.8078L6.15892 41.9918C6.51426 41.8499 7.15386 41.5779 7.28415 41.8972L7.33153 42.0036L7.58027 41.8972L7.53289 41.7907C7.44998 41.5897 7.37891 41.5188 7.30784 41.4123C7.20124 41.2586 7.21309 41.1876 7.1894 41.0339C7.17755 40.9275 7.14202 40.8329 7.11833 40.7383C7.07095 40.5727 7.01173 40.419 6.95251 40.2534C6.54979 39.26 5.69698 39.3783 5.1166 39.6148C4.48884 39.8632 4.01506 40.4899 4.39408 41.4123C4.45331 41.5661 4.52437 41.708 4.60728 41.8499L3.87292 42.1455C3.32807 42.3584 2.87798 42.5831 2.74769 42.2756L2.70031 42.1692L2.45158 42.2756L2.52264 42.453C2.55818 42.5358 2.6174 42.6185 2.66478 42.7013C2.71216 42.7959 2.77138 42.8787 2.80691 42.9733C2.84245 43.0679 2.87798 43.1744 2.90167 43.2808C2.92536 43.3754 2.9372 43.47 2.97274 43.5528L3.03196 43.6947ZM4.83233 41.7316C4.80864 41.6843 4.78495 41.637 4.76126 41.5897C4.53622 41.0339 4.82049 40.549 5.49563 40.2652C6.15892 39.9932 6.6327 40.1706 6.76299 40.4899C6.90513 40.8329 6.69193 40.9748 6.26552 41.1522L4.83233 41.7316ZM1.76459 40.5609L2.01333 40.4544L1.96595 40.348C1.83566 40.0287 2.46342 39.8277 2.90167 39.6503L4.91524 38.8343C5.23505 38.7042 5.87465 38.4322 5.9931 38.7397L6.04048 38.8461L6.28921 38.7397L6.21814 38.5505C6.18261 38.4677 6.11154 38.3968 6.06417 38.314C6.00494 38.2312 5.95756 38.1366 5.92203 38.042C5.8865 37.9474 5.85096 37.8528 5.82727 37.7464C5.81543 37.6518 5.81543 37.5571 5.7799 37.4744L5.69698 37.2852L5.44825 37.3798L5.49563 37.4862C5.60223 37.7582 5.06922 37.9829 4.67835 38.1366L2.60555 38.9762C2.20284 39.1418 1.59877 39.4374 1.46848 39.1063L1.4211 38.9881L1.17236 39.0945L1.24343 39.2719C1.27896 39.3547 1.33819 39.4374 1.38557 39.5202C1.43294 39.6148 1.49217 39.6976 1.5277 39.7922C1.56323 39.8868 1.59877 39.9932 1.62246 40.0997C1.64615 40.2061 1.65799 40.3007 1.69352 40.3835L1.76459 40.5609Z" fill="#3BA6B3"/>
<path fill-rule="evenodd" clip-rule="evenodd" d="M5.22316 34.4579L4.95073 34.5052L4.98627 34.6589C5.05733 35.0018 4.21637 35.1201 3.78997 35.2029L1.48028 35.6523L0.793295 35.7823C0.769606 35.7232 0.769606 35.6759 0.757762 35.6168C0.651161 35.0728 1.03019 34.6589 1.76455 34.517C2.61736 34.3514 2.99638 34.7299 2.96085 35.1201L3.19774 35.0728C3.19774 34.9664 3.19774 34.8599 3.17405 34.7535C3.00823 33.9257 2.25018 33.6655 1.50397 33.8075C1.07756 33.8902 0.165534 34.245 0.402425 35.4394C0.426114 35.5695 0.473492 35.6996 0.520871 35.8296C0.580093 35.9952 0.639316 36.1608 0.67485 36.3382C0.698539 36.4446 0.710384 36.5628 0.722228 36.6693C0.722228 36.7284 0.734073 36.7994 0.745917 36.8585L0.769606 36.9767L1.04203 36.9294L1.01834 36.8112C0.959119 36.5037 1.63426 36.3736 2.16726 36.2672L3.51754 36.007C3.76628 35.9597 4.3822 35.8533 4.64278 35.806C4.8086 35.7823 5.22316 35.7232 5.28238 35.9716L5.30607 36.0898L5.5785 36.0425L5.54296 35.8296C5.51927 35.735 5.47189 35.6523 5.43636 35.5695C5.40083 35.4749 5.36529 35.3803 5.35345 35.2738C5.32976 35.1674 5.31791 35.061 5.31791 34.9545C5.31791 34.8599 5.3416 34.7653 5.31791 34.6707L5.22316 34.4579Z" fill="#3BA6B3"/>
<path fill-rule="evenodd" clip-rule="evenodd" d="M0.0829119 32.2364L0.355337 32.2245V32.0944C0.343492 31.7988 0.959409 31.7752 1.35028 31.7633L3.6955 31.6806C4.07453 31.6687 4.6786 31.6332 4.69044 31.9525V32.0708L4.96287 32.059L4.95102 31.8461C4.95102 31.7515 4.90364 31.6687 4.87996 31.5741C4.85627 31.4677 4.84442 31.3731 4.84442 31.2667C4.84442 31.1602 4.84442 31.0656 4.86811 30.9592C4.8918 30.8646 4.91549 30.77 4.91549 30.6872L4.90364 30.4034L4.63122 30.4152L4.64306 30.6162C4.65491 30.9119 4.07453 30.9474 3.61259 30.9592L0.379026 31.0774L0.367181 30.6754C0.355337 30.4034 0.26058 30.0131 0.900186 29.9895C1.07785 29.9777 1.25552 30.0131 1.29106 30.025L1.27921 29.8003C0.93572 29.7175 0.497471 29.6465 0 29.5874C0.0473782 30.3679 0.0710673 30.3324 0.0947564 30.7463C0.0947564 30.8764 0.106601 31.2193 0.106601 31.3849C0.106601 31.7515 0.0710673 31.6569 0.0710673 31.9762L0.0829119 32.2364Z" fill="#3BA6B3"/>
<path fill-rule="evenodd" clip-rule="evenodd" d="M0.0825195 27.6009L0.354944 27.6482L0.378633 27.53C0.437856 27.187 1.07746 27.3408 1.49202 27.4117L3.63589 27.7547C4.01491 27.8138 4.7019 27.9202 4.65452 28.2513L4.63083 28.3696L4.90325 28.4169L4.92694 28.2986C4.96248 28.0858 4.93879 27.9912 4.92694 27.8611C4.9151 27.6837 4.96248 27.6246 5.0217 27.4708C5.06908 27.3762 5.09277 27.2816 5.11646 27.1752C5.16383 27.0096 5.19937 26.8441 5.22306 26.6785C5.38888 25.6142 4.59529 25.2831 3.97938 25.1885C3.31608 25.082 2.59356 25.3659 2.42774 26.3474C2.40405 26.5011 2.39221 26.6667 2.39221 26.8322L1.61047 26.7022C1.03008 26.6076 0.532613 26.5721 0.579991 26.241L0.60368 26.1227L0.331255 26.0754L0.307566 26.2646C0.295722 26.3592 0.295722 26.4538 0.295722 26.5484C0.295722 26.6549 0.295722 26.7613 0.272032 26.8559C0.260188 26.9623 0.224654 27.0688 0.189121 27.1634C0.165431 27.2461 0.118053 27.3408 0.106209 27.4354L0.0825195 27.6009ZM2.6291 26.8441C2.6291 26.7968 2.64094 26.7376 2.65279 26.6785C2.74754 26.0872 3.24502 25.8152 3.96753 25.9217C4.67821 26.0399 4.98616 26.4302 4.93879 26.7613C4.87956 27.1279 4.63083 27.1397 4.18074 27.0688L2.6291 26.8441ZM0.615524 24.2542L0.887949 24.3015L0.911638 24.1833C0.970861 23.8403 1.61047 23.9941 2.0724 24.065L4.21627 24.408C4.55976 24.4671 5.2349 24.5617 5.18752 24.881L5.16383 24.9993L5.43626 25.0466L5.47179 24.8337C5.48364 24.7391 5.45995 24.6445 5.45995 24.5499C5.45995 24.4435 5.45995 24.337 5.48364 24.2424C5.49548 24.136 5.51917 24.0414 5.5547 23.9468C5.59024 23.864 5.63762 23.7694 5.64946 23.6866L5.68499 23.4856L5.41257 23.4383L5.40072 23.5565C5.35335 23.8522 4.77296 23.7694 4.37025 23.6984L2.16716 23.3437C1.72891 23.2727 1.07746 23.2254 1.12484 22.8825L1.14853 22.7642L0.86426 22.7051L0.828726 22.8943C0.816882 22.9889 0.816882 23.0835 0.816882 23.1781C0.816882 23.2845 0.816882 23.391 0.793193 23.4856C0.781348 23.592 0.745815 23.6984 0.710281 23.793C0.686592 23.8758 0.651058 23.9704 0.627369 24.065L0.615524 24.2542Z" fill="#3BA6B3"/>
<path fill-rule="evenodd" clip-rule="evenodd" d="M4.92741 21.9002L5.06955 21.9593C5.53148 22.1367 5.96973 22.3969 6.45536 21.7819C6.5738 21.64 6.66856 21.4745 6.72778 21.3089C7.11865 20.3037 6.41982 19.5942 5.80391 19.3577C4.97479 19.0384 4.39441 19.5824 4.25227 19.9608L4.21674 20.0554L4.14567 20.0081C4.21674 19.6178 4.19305 18.9556 3.48238 18.6836C3.02044 18.5062 2.38083 18.4707 2.08472 19.2394C1.82414 19.9135 1.91889 20.0909 1.69385 20.422L1.87152 20.4929C2.04918 20.5639 2.54666 20.7768 2.75986 20.8714L2.83092 20.6703C2.36899 20.3747 2.03734 20.0909 2.20316 19.6533C2.3453 19.2985 2.73617 19.1921 3.23364 19.3813C3.77849 19.5942 3.97985 20.079 3.83771 20.4456C3.81402 20.5166 3.76664 20.6112 3.71927 20.6822L4.08645 20.8241C4.09829 20.7413 4.11014 20.6703 4.15751 20.5639C4.41809 19.878 5.06955 19.9017 5.62624 20.1145C6.34876 20.3865 6.5738 20.8832 6.41982 21.2853C6.30138 21.6046 5.9342 21.9357 4.97479 21.7346L4.92741 21.9002Z" fill="#3BA6B3"/>
<path fill-rule="evenodd" clip-rule="evenodd" d="M8.56384 15.196C8.95471 15.6809 8.91918 16.3786 8.70598 16.7215C8.35064 17.3128 7.26094 17.6794 5.93435 16.8871C4.83281 16.2249 4.34718 15.267 4.8565 14.4155C5.11708 13.978 5.69746 13.6823 6.33706 14.0608L6.45551 13.8715C6.40813 13.8479 6.3726 13.8242 6.32522 13.8006C6.08833 13.6587 5.63824 13.363 5.3895 13.1738C5.35397 13.2921 5.27106 13.4222 5.19999 13.5523C5.03416 13.8242 4.77358 13.9898 4.46563 14.4865C3.69573 15.7637 4.4064 16.9344 5.46057 17.5612C6.77531 18.3535 8.22035 18.1288 8.91918 16.9699C9.10869 16.6624 9.26267 16.2367 9.26267 15.8937C9.26267 15.6691 9.21529 15.4562 8.68229 15.0186L8.56384 15.196Z" fill="#3BA6B3"/>
<path fill-rule="evenodd" clip-rule="evenodd" d="M7.81739 10.6305L10.1152 12.6882C10.4706 13.0075 11.0391 13.5278 10.8141 13.7761L10.7312 13.8707L10.9325 14.0481L11.0865 13.8826C11.1576 13.8116 11.1931 13.717 11.2286 13.6342C11.276 13.5396 11.3471 13.4568 11.4181 13.3859C11.4892 13.3149 11.5721 13.2322 11.655 13.173C11.7379 13.1139 11.8209 13.0784 11.8919 13.0075L12.0341 12.8537L11.8327 12.6763L11.7498 12.771C11.5247 13.0311 10.9562 12.4871 10.6009 12.1797L8.30302 10.0865L8.61098 9.74357C8.76496 9.57801 9.06107 9.25872 9.48748 9.63714C9.51117 9.66079 9.60592 9.74357 9.71252 9.87366L9.8665 9.7081C9.46379 9.24689 9.41641 9.14046 9.01369 8.72656C8.70574 9.11681 8.23195 9.74357 7.85293 10.1693C7.69895 10.3349 7.31992 10.7488 7.17779 10.8788C7.02381 11.0326 6.98828 11.0562 6.62109 11.3873C6.90536 11.683 7.00012 11.8131 7.48575 12.3452L7.62788 12.1797C7.20148 11.5766 7.2607 11.2454 7.50944 10.9734L7.81739 10.6305Z" fill="#3BA6B3"/>
<path fill-rule="evenodd" clip-rule="evenodd" d="M13.3127 11.5307L13.4667 11.4124C13.514 11.377 13.5496 11.306 13.5851 11.2587C13.6443 11.1759 13.7272 11.1168 13.8102 11.0458C14.201 10.7265 13.9286 11.034 14.2721 10.7502L14.355 10.6911L14.1773 10.4782L14.0707 10.561C13.976 10.6319 13.7509 10.762 13.5377 10.289L13.1587 9.46119C13.4193 9.27198 13.4785 9.2365 13.597 9.1419C13.7746 8.98816 13.976 8.81078 14.0589 8.728L14.888 9.33111C15.0894 9.48484 15.1249 9.68588 14.9946 9.79231L14.888 9.87509L15.0657 10.088L15.2552 9.93422C15.3381 9.86326 15.4092 9.76866 15.4802 9.68588C15.5513 9.61492 15.6105 9.54397 15.6934 9.48484C15.7882 9.40206 15.8948 9.33111 16.0132 9.26015C16.0962 9.21285 16.1909 9.16555 16.2738 9.10642L16.3804 9.01181L16.2028 8.79895L16.1672 8.8699C16.0488 8.96451 15.954 9.11824 15.4566 8.79895C14.9828 8.49148 15.3973 8.81078 13.2653 7.29709C12.3177 6.62302 12.0927 6.45746 11.7966 6.22095C11.7374 6.36286 11.6545 6.50476 11.5479 6.63485C11.7611 7.00144 11.9387 7.40352 12.6849 9.11824C12.8389 9.47302 13.064 10.017 13.2416 10.5492C13.3245 10.7857 13.4074 11.0931 13.2298 11.235L13.135 11.306L13.3127 11.5307ZM12.2585 7.40352C12.5546 7.68733 12.6849 7.71099 13.8102 8.55061C13.7272 8.65704 13.6443 8.73982 13.4785 8.8699C13.3008 9.02364 13.1706 9.10642 13.0403 9.17737C12.3888 7.75829 12.3651 7.66368 12.223 7.45082L12.2585 7.40352Z" fill="#3BA6B3"/>
<path fill-rule="evenodd" clip-rule="evenodd" d="M15.1729 4.16239L15.2913 4.41073L15.3979 4.36343C15.6229 4.257 15.7769 4.51716 15.8835 4.7182C15.9783 4.90741 16.1559 5.25036 16.2507 5.43957L17.1627 7.31986C17.293 7.58002 17.5418 8.124 17.2693 8.25409L17.1627 8.30139L17.2812 8.54973L17.4707 8.45512C17.5536 8.41965 17.6247 8.33687 17.6957 8.27774C17.7787 8.21861 17.8734 8.15948 17.9682 8.11218C18.0629 8.06487 18.1577 8.0294 18.2643 8.00575C18.359 7.98209 18.4538 7.98209 18.5367 7.93479L18.7262 7.84019L18.6078 7.59185L18.5012 7.63915C18.2643 7.75741 18.0155 7.34351 17.8379 6.97691L17.3049 5.87712C17.4588 5.82982 17.6365 5.74704 17.8971 5.62878C18.0155 5.56965 18.1458 5.51052 18.2643 5.45139C18.3827 5.39227 18.513 5.33314 18.6315 5.27401C18.892 5.14393 19.0579 5.04932 19.1882 4.95471L19.7212 6.0545C19.8988 6.4211 20.0765 6.87048 19.8396 6.98874L19.733 7.03604L19.8514 7.28438L20.041 7.18977C20.1239 7.1543 20.1949 7.07152 20.266 7.01239C20.3489 6.95326 20.4437 6.89413 20.5384 6.84683C20.6332 6.79952 20.7279 6.76405 20.8345 6.7404C20.9293 6.71674 21.0241 6.71674 21.107 6.66944L21.2965 6.57484L21.178 6.3265L21.0714 6.3738C20.799 6.50388 20.5266 5.97172 20.3963 5.71156L19.4843 3.83127C19.2237 3.31094 18.8328 2.6487 19.1645 2.48314L19.2711 2.43584L19.1526 2.1875L18.9868 2.27028C18.8802 2.36489 18.7973 2.42401 18.7262 2.48314C18.6433 2.54227 18.5485 2.6014 18.4538 2.6487C18.359 2.69601 18.2643 2.73148 18.1577 2.75513C18.0629 2.77879 17.9682 2.80244 17.8853 2.84974L17.7076 2.93252L17.826 3.18086L17.9326 3.13356C18.1814 3.0153 18.359 3.35824 18.4301 3.48833C18.4893 3.59476 18.7262 4.05596 18.7973 4.22152L19.0223 4.68272C18.8802 4.77733 18.667 4.93106 18.1103 5.20305C17.5536 5.47505 17.3049 5.55783 17.139 5.60513L16.914 5.14393C16.8311 4.97837 16.606 4.50534 16.5587 4.39891C16.4994 4.257 16.3336 3.90223 16.5824 3.78397L16.689 3.73667L16.5824 3.4765L16.4047 3.55928C16.3218 3.59476 16.2389 3.66571 16.1678 3.71302C16.0849 3.77214 15.9901 3.83127 15.9072 3.87858C15.8125 3.92588 15.7059 3.96136 15.6111 3.99683C15.5163 4.02048 15.4216 4.04414 15.3387 4.09144L15.1729 4.16239Z" fill="#3BA6B3"/>
<path fill-rule="evenodd" clip-rule="evenodd" d="M27.5504 3.98636C27.4438 4.60129 26.9108 5.03885 26.508 5.12163C25.8211 5.25171 24.8261 4.6959 24.53 3.18221C24.2813 1.91686 24.6721 0.911674 25.6434 0.722463C26.1527 0.627858 26.7568 0.852546 26.8989 1.58574L27.124 1.53844C27.1121 1.49113 27.1003 1.44383 27.0884 1.39653C27.041 1.12454 26.9463 0.59238 26.9344 0.284912C26.816 0.332215 26.6739 0.367692 26.5199 0.391343C26.2119 0.450472 25.904 0.367692 25.3354 0.474123C23.8667 0.75794 23.4758 2.05877 23.7127 3.26499C24.0088 4.76685 25.1341 5.68926 26.4607 5.42909C26.816 5.35814 27.2306 5.19258 27.4911 4.96789C27.657 4.81416 27.7873 4.63677 27.7517 3.93906L27.5504 3.98636Z" fill="#3BA6B3"/>
<path fill-rule="evenodd" clip-rule="evenodd" d="M28.9478 5.03775H29.1373C29.1965 5.03775 29.2676 5.0141 29.3268 5.00227C29.4334 4.97862 29.5281 4.97862 29.6347 4.99045C30.1322 5.00227 29.7413 5.0614 30.1796 5.0614H30.2862V4.78941H30.1559C30.0375 4.78941 29.7887 4.74211 29.919 4.24543L30.1677 3.37033C30.4875 3.39398 30.5468 3.4058 30.7007 3.4058C30.9376 3.4058 31.2101 3.4058 31.3285 3.39398L31.5654 4.38734C31.6246 4.63568 31.518 4.81306 31.3522 4.80124H31.2219V5.07323H31.4706C31.5772 5.07323 31.6838 5.04958 31.8023 5.02593C31.897 5.0141 31.9918 5.00227 32.0866 5.0141C32.2169 5.0141 32.3471 5.02593 32.4656 5.04958C32.5603 5.0614 32.6551 5.09688 32.7617 5.09688H32.9038V4.82489H32.8446C32.6906 4.82489 32.5248 4.88402 32.3471 4.31638C32.1813 3.7724 32.2998 4.29273 31.6365 1.76203C31.3404 0.638588 31.2693 0.366597 31.1982 0C31.0679 0.0709542 30.9139 0.130083 30.7481 0.153734C30.6771 0.567634 30.5586 0.993359 30.0138 2.79087C29.9072 3.16929 29.7295 3.7251 29.5163 4.24543C29.4215 4.48194 29.2912 4.76576 29.0662 4.76576H28.9478V5.03775ZM30.7955 1.1944C30.8429 1.6083 30.9258 1.7029 31.2456 3.06286C31.1153 3.09833 30.9969 3.11016 30.7955 3.09833C30.5586 3.09833 30.4165 3.07468 30.2625 3.05103C30.6771 1.54917 30.7244 1.45456 30.7481 1.20622L30.7955 1.1944Z" fill="#3BA6B3"/>
<path fill-rule="evenodd" clip-rule="evenodd" d="M33.6865 5.23923L33.9234 5.28654C34.0537 5.31019 34.1721 5.25106 34.409 5.29836C34.5275 5.32202 34.6459 5.36932 34.7644 5.41662C34.8354 5.44027 34.8947 5.47575 34.9657 5.48758L35.0605 5.51123L35.1079 5.23923L34.9776 5.20376C34.8591 5.18011 34.6815 5.07368 34.9302 4.54152L35.937 2.40107C36.0554 2.1409 36.1265 1.99899 36.1739 1.76248L36.2213 1.7743C36.2094 1.93986 36.1976 1.98717 36.2094 2.06995L36.3989 4.52969C36.4226 4.88446 36.5174 5.4994 36.0554 5.4048L35.9844 5.39297L35.937 5.67679L36.2213 5.73591C36.316 5.74774 36.3989 5.73591 36.4937 5.72409C36.6003 5.71226 36.7069 5.73591 36.8135 5.75957C36.9319 5.78322 37.0385 5.80687 37.1451 5.866C37.2162 5.90147 37.2991 5.94878 37.3702 5.9606L37.5597 5.99608L37.6071 5.72409L37.4886 5.70044C37.2162 5.64131 37.1451 4.89629 37.0741 4.18675C36.9319 2.67306 36.8609 1.90439 36.8253 0.733643C36.6832 0.745468 36.5292 0.745468 36.3752 0.745468C36.0436 1.56144 35.7238 2.1882 35.3921 2.82679C34.7999 3.99754 34.7999 3.95023 34.5749 4.37596C34.4446 4.61247 34.184 5.07368 33.876 5.00272L33.7339 4.96724L33.6865 5.23923Z" fill="#3BA6B3"/>
<path fill-rule="evenodd" clip-rule="evenodd" d="M40.5795 1.89185L40.4729 2.14019L40.5795 2.18749C40.8993 2.3294 40.5795 2.90886 40.4018 3.2991L39.5135 5.28582C39.3595 5.62877 39.0752 6.26736 38.7791 6.13727L38.6725 6.08997L38.5659 6.33831L38.6725 6.38561C38.862 6.46839 38.9686 6.48022 39.0989 6.50387C39.2766 6.53935 39.324 6.59848 39.4543 6.69308C39.5372 6.76404 39.6201 6.81134 39.7148 6.85864C39.8688 6.95325 40.011 7.0242 40.1649 7.09516C41.148 7.53271 41.681 6.85864 41.9298 6.27918C42.2022 5.66425 42.1193 4.89557 41.2073 4.48168C41.0651 4.42255 40.9111 4.36342 40.7572 4.31612L41.077 3.59475C41.3139 3.06259 41.4915 2.58956 41.7876 2.71964L41.8942 2.76695L42.0008 2.51861L41.8232 2.44765C41.7403 2.41218 41.6455 2.38853 41.5507 2.36487C41.4441 2.34122 41.3494 2.30575 41.2546 2.25844C41.1599 2.22297 41.0651 2.16384 40.9822 2.10471C40.8993 2.05741 40.8282 1.99828 40.7453 1.9628L40.5795 1.89185ZM40.6624 4.5408C40.7098 4.55263 40.769 4.57628 40.8164 4.59993C41.3731 4.84827 41.5034 5.39225 41.2073 6.06632C40.9111 6.72856 40.4492 6.91777 40.1412 6.77586C39.7977 6.63395 39.8451 6.38561 40.0346 5.95989L40.6624 4.5408ZM43.6828 3.27545L43.5762 3.52379L43.6828 3.5711C44.0026 3.713 43.6946 4.29246 43.4933 4.71819L42.6049 6.70491C42.4628 7.0242 42.1903 7.65096 41.8942 7.52088L41.7876 7.47358L41.681 7.72192L41.8705 7.8047C41.9535 7.84018 42.0482 7.852 42.143 7.86383C42.2496 7.88748 42.3443 7.92296 42.4391 7.95843C42.5338 8.00573 42.6286 8.05304 42.7115 8.11217C42.7826 8.1713 42.8536 8.24225 42.9366 8.27773L43.1261 8.36051L43.2327 8.11217L43.1261 8.06486C42.8536 7.94661 43.0905 7.41445 43.2564 7.0242L44.1684 4.97835C44.3461 4.57628 44.5711 3.94952 44.8909 4.09143L45.0094 4.16238L45.116 3.91404L44.9383 3.83126C44.8554 3.79578 44.7606 3.77213 44.6659 3.74848C44.5593 3.72483 44.4645 3.68935 44.3697 3.64205C44.275 3.60657 44.1921 3.54744 44.0973 3.50014C44.0144 3.45284 43.9433 3.39371 43.8486 3.35823L43.6828 3.27545Z" fill="#3BA6B3"/>
<path fill-rule="evenodd" clip-rule="evenodd" d="M47.0347 5.15576L46.8689 5.38045L46.9637 5.4514C47.2242 5.64062 46.8926 6.05452 46.632 6.40929L45.1751 8.40783C44.9975 8.64434 44.6421 9.11737 44.3934 8.93999L44.2986 8.86903L44.1328 9.09372L44.2986 9.21198C44.3697 9.27111 44.4645 9.29476 44.5592 9.33024C44.654 9.37754 44.7487 9.43667 44.8316 9.49579C44.9146 9.55492 44.9975 9.62588 45.0685 9.70866C45.1278 9.77961 45.187 9.86239 45.258 9.92152L45.4239 10.0398L45.5897 9.81509L45.4949 9.74413C45.258 9.56675 45.5897 9.0819 45.7674 8.83356L47.2242 6.83501C47.4848 6.48024 47.7809 6.04269 48.0415 6.2319L48.1363 6.30285L48.3021 6.07817L48.1481 5.97174C48.0771 5.91261 47.9941 5.87713 47.9112 5.84165C47.8165 5.79435 47.7217 5.73522 47.6388 5.67609C47.5559 5.61696 47.473 5.53418 47.4019 5.46323C47.3308 5.39228 47.2716 5.32132 47.2006 5.27402L47.0347 5.15576ZM48.764 6.75223L48.8706 6.82319C48.9417 6.88231 48.9417 6.98875 48.8351 7.09518C48.5982 7.31987 48.2073 7.37899 47.9112 7.44995C47.5677 7.53273 47.2124 7.65099 46.6676 7.80472C46.6557 8.53791 46.5728 9.29476 46.5491 9.61405C46.4662 10.3827 46.4188 10.7848 46.786 11.0568C46.9637 11.1869 47.0347 11.175 47.319 11.2578L47.4848 11.0331C47.2598 11.0095 47.1887 10.9504 47.1532 10.9267C47.011 10.8203 47.0821 10.4773 47.1295 10.2172C47.1887 9.82692 47.2242 9.41301 47.2716 9.01094C47.319 8.65617 47.3782 8.28957 47.1295 7.87567C47.2479 7.85202 47.3072 7.8402 47.4138 7.81655C47.6862 7.74559 47.4493 7.79289 48.16 7.65099C49.4629 7.37899 49.5339 7.30804 49.8182 7.50908L49.8774 7.55638L50.0432 7.33169L49.9366 7.26074C49.8893 7.22526 49.83 7.20161 49.7827 7.17796C49.6761 7.13065 49.5576 7.07153 49.4629 7.00057C49.3563 6.91779 49.2615 6.82319 49.1667 6.71675C49.1194 6.66945 49.072 6.63397 49.0246 6.5985L48.918 6.52754L48.764 6.75223Z" fill="#3BA6B3"/>
<path fill-rule="evenodd" clip-rule="evenodd" d="M53.1229 10.4661L52.9097 10.6434L52.9808 10.7381C53.1821 10.9864 52.7557 11.3057 52.4122 11.5777L50.4934 13.1268C50.2684 13.3161 49.7946 13.6708 49.6051 13.4461L49.534 13.3515L49.3208 13.5289L49.4511 13.6945C49.5103 13.7654 49.5932 13.8127 49.6643 13.8719C49.7472 13.9428 49.8183 14.0138 49.8893 14.0966C49.9486 14.1793 50.0196 14.2621 50.067 14.3567C50.1025 14.4395 50.1381 14.5341 50.1973 14.6051L50.3276 14.7706L50.5408 14.5932L50.4697 14.4986C50.2802 14.2621 50.7303 13.8837 50.9672 13.6945L52.886 12.1453C53.2295 11.8733 53.6322 11.5186 53.8336 11.7669L53.9046 11.8615L54.1178 11.6841L53.9994 11.5422C53.9402 11.4712 53.8691 11.4121 53.798 11.3412C53.727 11.2702 53.6441 11.1993 53.573 11.1165C53.5019 11.0337 53.4545 10.9391 53.3953 10.8563C53.3479 10.7735 53.3006 10.6908 53.2413 10.6198L53.1229 10.4661ZM54.3784 12.4528L54.4613 12.5474C54.5206 12.6183 54.485 12.7366 54.3547 12.7957C54.0705 12.9495 53.6677 12.914 53.3716 12.9022C53.0163 12.8903 52.6373 12.914 52.0806 12.9258C51.8792 13.6235 51.6068 14.3449 51.4884 14.6405C51.2159 15.3619 51.0501 15.7403 51.3462 16.0951C51.4884 16.2725 51.5594 16.2725 51.8082 16.4262L52.0214 16.2488C51.82 16.1661 51.7608 16.0951 51.7252 16.0596C51.6186 15.9295 51.7726 15.6102 51.8792 15.3737C52.0332 15.0071 52.1872 14.6169 52.3293 14.2503C52.4596 13.9073 52.6136 13.5762 52.4951 13.115C52.6136 13.1268 52.6728 13.1268 52.7794 13.1268C53.0637 13.1268 52.8149 13.115 53.5375 13.1505C54.864 13.2215 54.9588 13.1742 55.172 13.4461L55.2194 13.5053L55.4326 13.3279L55.3497 13.2333C55.3141 13.186 55.2668 13.1505 55.2194 13.115C55.1246 13.0322 55.0299 12.9495 54.9588 12.8549C54.8759 12.7484 54.8048 12.6302 54.7456 12.5001C54.7101 12.441 54.6745 12.3937 54.639 12.3464L54.5679 12.2517L54.3784 12.4528Z" fill="#3BA6B3"/>
<path fill-rule="evenodd" clip-rule="evenodd" d="M56.7703 15.4797L56.5216 15.598L56.569 15.7044C56.7111 16.0237 56.0952 16.2484 55.7043 16.4258L53.7381 17.3364C53.3946 17.5019 52.7669 17.7976 52.6247 17.4901L52.5773 17.3837L52.3286 17.5019L52.376 17.6084C52.4707 17.7976 52.5418 17.8685 52.6247 17.975C52.7432 18.1169 52.7313 18.1878 52.7669 18.3416C52.7905 18.448 52.8142 18.5426 52.8498 18.6372C52.8971 18.8028 52.9682 18.9565 53.0393 19.1102C53.4894 20.0799 54.3422 19.9144 54.9107 19.6542C55.5266 19.3704 55.9649 18.7318 55.5385 17.8212C55.4674 17.6793 55.3845 17.5374 55.3016 17.3955L56.0241 17.0644C56.5571 16.816 56.9954 16.5795 57.1375 16.8752L57.1849 16.9816L57.4336 16.8633L57.3507 16.686C57.3152 16.6032 57.2559 16.5204 57.1967 16.4494C57.1375 16.3667 57.0783 16.2721 57.0427 16.1775C56.9954 16.0828 56.9717 15.9764 56.9361 15.8818C56.9125 15.7872 56.8888 15.6926 56.8532 15.6098L56.7703 15.4797ZM55.0884 17.5374C55.1121 17.5847 55.1358 17.632 55.1595 17.6793C55.42 18.2233 55.1595 18.7318 54.4962 19.0393C53.8447 19.3467 53.3709 19.193 53.217 18.8737C53.063 18.5426 53.2643 18.3889 53.6789 18.1878L55.0884 17.5374ZM58.2035 18.5544L57.9548 18.6727L58.0022 18.7791C58.1443 19.0866 57.5402 19.3231 57.102 19.5241L55.1358 20.4465C54.8278 20.5884 54.2001 20.8959 54.0579 20.6003L54.0105 20.4938L53.7618 20.6121L53.8447 20.8013C53.8802 20.8841 53.9513 20.955 54.0105 21.026C54.0698 21.1088 54.129 21.2034 54.1645 21.298C54.2119 21.3926 54.2474 21.4872 54.2711 21.5936C54.2948 21.6882 54.2948 21.7828 54.3303 21.8656L54.4133 22.0548L54.662 21.9366L54.6146 21.8301C54.4843 21.5581 55.0173 21.3098 55.3964 21.1324L57.4218 20.1864C57.8245 19.9972 58.393 19.6779 58.547 19.9972L58.5944 20.1036L58.8431 19.9853L58.7602 19.8079C58.7247 19.7252 58.6654 19.6424 58.6062 19.5714C58.547 19.4886 58.4878 19.394 58.4522 19.2994C58.4049 19.2048 58.3812 19.0984 58.3456 19.0038C58.322 18.9092 58.2983 18.8146 58.2627 18.7318L58.2035 18.5544Z" fill="#3BA6B3"/>
<path fill-rule="evenodd" clip-rule="evenodd" d="M56.0252 22.8354L55.8712 22.8708C55.3974 22.9891 54.8762 23.0246 54.8407 23.8169C54.8289 24.0061 54.8407 24.1835 54.8881 24.3609C55.1487 25.4015 56.1199 25.5908 56.7714 25.437C57.636 25.2242 57.79 24.4437 57.6952 24.0534L57.6715 23.9588L57.7426 23.9352C57.9084 24.3018 58.3112 24.8221 59.0574 24.6447C59.543 24.5264 60.076 24.1953 59.8746 23.3912C59.697 22.6935 59.5193 22.5989 59.5193 22.1968L59.3298 22.2441C59.1521 22.2914 58.6073 22.3978 58.3822 22.4451L58.4296 22.6462C58.9863 22.6225 59.4127 22.658 59.5311 23.1192C59.6259 23.4976 59.3535 23.8051 58.8442 23.9233C58.2756 24.0652 57.8255 23.7814 57.7308 23.403C57.7071 23.3202 57.6952 23.2256 57.6834 23.1428L57.3044 23.2374C57.3399 23.3084 57.3754 23.3793 57.3991 23.4976C57.5768 24.2071 57.0319 24.5619 56.4516 24.7038C55.7054 24.893 55.2316 24.621 55.1368 24.1953C55.0539 23.8642 55.1605 23.3793 56.0607 23.0009L56.0252 22.8354Z" fill="#3BA6B3"/>
<path fill-rule="evenodd" clip-rule="evenodd" d="M55.5386 26.7367L55.5504 26.9141C55.5623 27.1151 55.6689 27.3043 55.6689 27.4462C55.6807 27.6236 55.6096 27.8365 55.6215 27.9429L55.6333 28.073L55.9058 28.0493L55.8939 27.9193C55.8702 27.5881 56.498 27.6118 56.723 27.6C57.2916 27.5645 58.7721 27.529 59.0919 27.5053L59.2104 27.4935V27.5527C59.0564 27.5881 58.6892 27.6946 57.4929 28.274C56.9955 28.5105 56.7349 28.6643 56.3322 28.8417C56.0953 28.9481 56.0953 28.9481 55.8228 29.0782L55.8347 29.291C56.2374 29.4093 56.2848 29.4211 56.4861 29.4921C56.9599 29.634 57.0191 29.6576 57.6588 29.8587C58.2273 30.0242 58.476 30.107 58.7366 30.178C59.3407 30.3435 59.0446 30.2489 59.3999 30.3553V30.3908L59.0209 30.4026L56.8059 30.6628C56.1663 30.7338 56.0716 30.6037 56.0597 30.4263V30.3435L55.7873 30.3672L55.7992 30.5091C55.811 30.6037 55.8347 30.6865 55.8584 30.7811C55.8821 30.8993 55.9176 31.0058 55.9294 31.124C55.9413 31.2423 55.9413 31.3605 55.9176 31.4906C55.9058 31.5734 55.8821 31.668 55.8821 31.7626L55.9058 31.9282L56.1782 31.9045L56.1663 31.8217C56.1308 31.3842 57.1021 31.3487 57.789 31.2659L59.6723 31.0412C59.8974 31.0176 60.1343 30.9821 60.3712 30.9585C60.4185 30.9585 60.4659 30.9466 60.5133 30.9466C60.6317 30.9348 60.7265 30.923 60.9042 30.8993C60.8331 30.7338 60.7857 30.5682 60.7502 30.379C60.6436 30.3553 60.1343 30.2489 58.8669 29.8705C57.9786 29.5985 57.5166 29.3856 56.8178 29.2792V29.2319C57.0665 29.1609 57.256 29.0663 57.4929 28.9717L60.6791 27.5763C60.608 27.4699 60.5607 27.3398 60.5251 27.2097C60.3356 27.2215 59.6013 27.257 59.009 27.257H56.9362C56.0479 27.257 55.8465 26.9968 55.8347 26.8076L55.8228 26.7249L55.5386 26.7367Z" fill="#3BA6B3"/>
<path fill-rule="evenodd" clip-rule="evenodd" d="M55.6812 32.8164L55.6575 33.0056C55.6457 33.0647 55.6694 33.1357 55.6694 33.1948C55.6812 33.3013 55.6575 33.4077 55.6457 33.5023C55.5628 33.999 55.5628 33.5969 55.4917 34.0226L55.4799 34.1291L55.7523 34.1764L55.776 34.0463C55.7878 33.928 55.8826 33.6797 56.3445 33.8925L57.1736 34.2591C57.1144 34.5784 57.0789 34.6376 57.067 34.7795C57.0315 35.016 56.996 35.2762 56.996 35.3944L55.9773 35.5008C55.7286 35.5245 55.5628 35.3944 55.5865 35.2289L55.6102 35.0988L55.3377 35.0515L55.3022 35.2998C55.2903 35.4062 55.3022 35.5245 55.3022 35.6309C55.3022 35.7255 55.2903 35.8201 55.2785 35.9147C55.2548 36.0448 55.2311 36.1631 55.1837 36.2932C55.1482 36.3878 55.1127 36.4824 55.1008 36.577L55.0771 36.7189L55.3496 36.7662L55.3614 36.7071C55.3851 36.5533 55.3496 36.3759 55.9418 36.2813C56.4985 36.1867 55.9655 36.234 58.5713 35.9266C59.7321 35.7965 60.0045 35.761 60.3835 35.7492C60.3361 35.6073 60.3006 35.4535 60.2888 35.288C59.886 35.1579 59.4833 34.9805 57.7777 34.2C57.4224 34.0345 56.9012 33.7861 56.4037 33.5023C56.1787 33.3722 55.9181 33.2067 55.9536 32.982L55.9773 32.8637L55.6812 32.8164ZM59.2227 35.1815C58.8082 35.1697 58.7016 35.2407 57.3039 35.3708C57.2921 35.2407 57.3039 35.1224 57.3276 34.9214C57.3631 34.6849 57.3987 34.543 57.4579 34.4011C58.8911 35.0278 58.974 35.0751 59.2227 35.1342V35.1815Z" fill="#3BA6B3"/>
<path fill-rule="evenodd" clip-rule="evenodd" d="M58.6298 40.4204L55.716 39.4152C55.2659 39.2615 54.5434 39.0013 54.65 38.6938L54.6855 38.5756L54.425 38.481L54.3539 38.6938C54.3184 38.7884 54.3302 38.883 54.3184 38.9776C54.3065 39.0841 54.271 39.1905 54.2473 39.2851C54.2118 39.3797 54.1762 39.4861 54.117 39.5689C54.0696 39.6517 53.9986 39.7227 53.9749 39.8173L53.9038 40.0183L54.1644 40.1129L54.1999 39.9946C54.3065 39.6635 55.0409 39.9473 55.491 40.1011L58.4047 41.1063L58.2626 41.532C58.1915 41.7448 58.0257 42.1588 57.5046 41.9814C57.4809 41.9695 57.3506 41.9341 57.2084 41.8513L57.1374 42.0641C57.6704 42.3361 57.7533 42.4071 58.2981 42.6318C58.4284 42.1587 58.6179 41.4019 58.8075 40.8579C58.8785 40.6451 59.068 40.1247 59.1509 39.9473C59.2339 39.7463 59.2576 39.7108 59.4708 39.2615C59.0917 39.1077 58.9496 39.0249 58.31 38.7175L58.2389 38.9185C58.8785 39.3088 58.9377 39.6399 58.8193 39.9828L58.6298 40.4204Z" fill="#3BA6B3"/>
<path fill-rule="evenodd" clip-rule="evenodd" d="M57.1622 44.6073L56.9253 44.4654L56.8661 44.5718C56.6765 44.8674 56.1435 44.4654 55.7882 44.2407L53.9405 43.0936C53.6206 42.8925 53.0166 42.5259 53.1942 42.2421L53.2535 42.1475L53.0166 42.0056L52.9574 42.112C52.8389 42.2894 52.8271 42.3959 52.7797 42.5141C52.7205 42.6915 52.6612 42.727 52.5428 42.8334C52.4599 42.9044 52.4007 42.9871 52.3414 43.0699C52.2348 43.2 52.1401 43.3419 52.0453 43.4838C51.4768 44.3944 52.069 45.0093 52.6139 45.3405C53.1824 45.6952 53.9641 45.7189 54.4971 44.8793C54.5801 44.7374 54.6511 44.5954 54.7222 44.4535L55.3973 44.8674C55.8948 45.1749 56.3331 45.4114 56.1554 45.6952L56.0962 45.8017L56.3331 45.9436L56.4397 45.778C56.487 45.6952 56.5226 45.6006 56.5581 45.5179C56.6055 45.4232 56.641 45.3286 56.7002 45.234C56.7595 45.1513 56.8305 45.0566 56.8897 44.9857C56.949 44.9147 57.02 44.8438 57.0674 44.761L57.1622 44.6073ZM54.5208 44.3116C54.4971 44.3589 54.4735 44.4062 54.4379 44.4535C54.1181 44.962 53.5614 45.0212 52.9337 44.6309C52.3177 44.2525 52.1875 43.7676 52.377 43.472C52.5665 43.1645 52.8152 43.2355 53.1942 43.4838L54.5208 44.3116ZM55.3618 47.4691L55.1249 47.3272L55.0657 47.4336C54.888 47.7293 54.355 47.339 53.9523 47.0907L52.1164 45.9436C51.8203 45.7662 51.228 45.3996 51.4057 45.1276L51.4649 45.033L51.228 44.8911L51.1214 45.0685C51.0741 45.1513 51.0504 45.2459 51.0267 45.3286C50.9912 45.4232 50.9438 45.5179 50.8846 45.6125C50.8253 45.6952 50.7661 45.778 50.695 45.8608C50.624 45.9317 50.5529 45.9909 50.5055 46.0618L50.3989 46.2392L50.6358 46.3811L50.695 46.2865C50.849 46.0382 51.3465 46.3338 51.7018 46.5585L53.597 47.7411C53.9641 47.9776 54.5564 48.2851 54.3669 48.5807L54.3076 48.6871L54.5445 48.8291L54.6511 48.6635C54.6985 48.5807 54.734 48.4861 54.7696 48.4033C54.817 48.3087 54.8525 48.2141 54.9117 48.1195C54.9709 48.0367 55.042 47.9421 55.1012 47.8712C55.1604 47.8002 55.2315 47.7293 55.2789 47.6465L55.3618 47.4691Z" fill="#3BA6B3"/>
<path fill-rule="evenodd" clip-rule="evenodd" d="M120.152 6.25V22.0363L135.964 6.25H120.152Z" fill="#3BA6B3"/>
<path fill-rule="evenodd" clip-rule="evenodd" d="M114.215 27.9639V43.7501L98.4033 27.9639H114.215Z" fill="#E53712"/>
<path d="M233.334 24.0013H230.616V15.5753H227.447V13.4604H236.503V15.5753H233.334V24.0013ZM215.772 16.4745C215.772 15.875 215.471 15.5753 214.871 15.5753H211.852V18.8891H214.871C215.471 18.8891 215.772 18.5893 215.772 17.9898V16.4745ZM209.133 13.4604H215.471C216.522 13.4604 217.289 13.6936 217.773 14.1765C218.257 14.6594 218.49 15.4254 218.49 16.4745V17.9732C218.49 19.0223 218.257 19.7883 217.773 20.2712C217.289 20.7541 216.522 20.9872 215.471 20.9872H211.852V24.0013H209.133V13.4604ZM193.305 20.1713H195.724L194.523 16.6244L193.305 20.1713ZM191.938 24.0013H189.002L193.005 13.4604H196.024L200.027 24.0013H197.091L196.408 22.1196H192.638L191.938 24.0013ZM177.16 18.1397L175.042 21.9031H172.924L170.806 18.1397V24.0179H168.087V13.4771H170.956L173.975 19.0389L176.994 13.4771H179.862V24.0179H177.144V18.1397H177.16ZM152.96 24.0512C151.976 24.0512 151.242 23.8181 150.791 23.3685C150.324 22.9189 150.091 22.2028 150.091 21.2204V16.4412C150.091 15.3921 150.324 14.6428 150.808 14.1598C151.292 13.6936 152.059 13.4604 153.11 13.4604H158.547V15.5753H153.727C153.126 15.5753 152.826 15.875 152.826 16.4745V21.2703C152.826 21.5034 152.893 21.6866 153.026 21.8198C153.16 21.953 153.343 22.0197 153.577 22.0197C153.76 22.0197 153.994 22.0197 154.244 22.0197C154.494 22.0197 154.761 22.0197 155.028 22.0197C155.295 22.0197 155.578 22.0197 155.845 22.0197C156.129 22.0197 156.395 21.9697 156.646 21.8864C157.263 21.8864 157.896 21.8864 158.547 21.8864V23.8514C157.88 23.9846 157.213 24.0512 156.545 24.0512C155.978 24.0512 155.361 24.0512 154.727 24.0512C154.077 24.0512 153.493 24.0512 152.96 24.0512Z" fill="#3BA6B3"/>
<path fill-rule="evenodd" clip-rule="evenodd" d="M114.215 22.0363V6.25L98.4033 22.0363H114.215Z" fill="#F7A803"/>
<path fill-rule="evenodd" clip-rule="evenodd" d="M120.152 43.7501V27.9639L135.964 43.7501H120.152Z" fill="#F7A803"/>
<path d="M211.252 34.8417C211.252 34.2422 210.951 33.9425 210.351 33.9425H207.482V36.6568H210.351C210.951 36.6568 211.252 36.3571 211.252 35.7576V34.8417ZM217.89 38.7716H215.171V28.2308H217.89V38.7716ZM207.482 31.8443H210.951C212.002 31.8443 212.769 32.0775 213.253 32.5604C213.737 33.0433 213.97 33.8093 213.97 34.8584V35.7576C213.97 36.8067 213.737 37.5727 213.253 38.0556C212.769 38.5385 212.002 38.7716 210.951 38.7716H204.764V28.2308H207.482V31.8443ZM189.002 36.5736C188.952 37.2896 188.719 37.8724 188.302 38.2887C187.885 38.705 187.334 38.9215 186.651 38.9215C186.467 38.9215 186.267 38.9215 186.083 38.9049C185.9 38.8882 185.733 38.8716 185.583 38.8549C185.4 38.8382 185.233 38.8049 185.066 38.7883V36.7567H185.75C185.933 36.7567 186.1 36.6901 186.234 36.5569C186.35 36.4237 186.434 36.2738 186.434 36.074L186.884 28.2475H195.257V38.7883H192.538V30.3623H189.369L189.002 36.5736ZM170.689 34.925H173.107L171.89 31.3947L170.689 34.925ZM169.321 38.7716H166.386L170.389 28.2308H173.408L177.411 38.7716H174.475L173.791 36.8899H170.022L169.321 38.7716ZM236.153 32.8934L234.035 36.6568H231.933L229.815 32.8934V38.7716H227.096V28.2308H229.965L232.984 33.8093L236.003 28.2308H238.872V38.7716H236.153V32.8934ZM152.96 38.8049C151.976 38.8049 151.242 38.5718 150.791 38.1222C150.324 37.6726 150.091 36.9399 150.091 35.9741V31.1949C150.091 30.1458 150.324 29.3965 150.808 28.9136C151.292 28.4473 152.059 28.1975 153.11 28.1975H158.547V30.3123H153.727C153.126 30.3123 152.826 30.6121 152.826 31.2116V36.0074C152.826 36.2405 152.893 36.4237 153.026 36.5569C153.16 36.6901 153.343 36.7567 153.577 36.7567C153.76 36.7567 153.994 36.7567 154.244 36.7567C154.494 36.7567 154.761 36.7567 155.028 36.7567C155.295 36.7567 155.578 36.7567 155.845 36.7567C156.129 36.7567 156.395 36.7068 156.646 36.6235C157.263 36.6235 157.896 36.6235 158.547 36.6235V38.5885C157.88 38.7217 157.213 38.7883 156.545 38.7883C155.978 38.7883 155.361 38.7883 154.727 38.7883C154.077 38.8049 153.493 38.8049 152.96 38.8049Z" fill="#E53712"/>
</svg>
